<mxfile host="app.diagrams.net" agent="Mozilla/5.0 (Macintosh; Intel Mac OS X 10_15_7) AppleWebKit/537.36 (KHTML, like Gecko) Chrome/124.0.0.0 Safari/537.36" version="26.0.4">
  <diagram name="Page-1" id="EMEx1OBKCK69zbWSrh3P">
    <mxGraphModel dx="1013" dy="991" grid="1" gridSize="10" guides="1" tooltips="1" connect="1" arrows="1" fold="1" page="1" pageScale="1" pageWidth="827" pageHeight="1169" math="0" shadow="0">
      <root>
        <mxCell id="0" />
        <mxCell id="1" parent="0" />
        <mxCell id="4P-OQTRNROBFhKRvD-74-1" value="&lt;b&gt;About push swap&lt;/b&gt;" style="text;html=1;align=center;verticalAlign=middle;whiteSpace=wrap;rounded=0;" vertex="1" parent="1">
          <mxGeometry x="360" y="20" width="130" height="30" as="geometry" />
        </mxCell>
        <mxCell id="4P-OQTRNROBFhKRvD-74-2" value="so this project is really usefull to take in quick intro to how optimize your algo also is really required thing that you well need it in your first interview &quot;sorting algo and how to choise the right algo to you problem with&#39;in optemized code" style="text;html=1;align=center;verticalAlign=middle;whiteSpace=wrap;rounded=0;" vertex="1" parent="1">
          <mxGeometry x="10" y="50" width="300" height="100" as="geometry" />
        </mxCell>
        <mxCell id="4P-OQTRNROBFhKRvD-74-13" style="edgeStyle=orthogonalEdgeStyle;rounded=0;orthogonalLoop=1;jettySize=auto;html=1;exitX=0.75;exitY=0;exitDx=0;exitDy=0;entryX=0;entryY=1;entryDx=0;entryDy=0;curved=1;" edge="1" parent="1" source="4P-OQTRNROBFhKRvD-74-3" target="4P-OQTRNROBFhKRvD-74-1">
          <mxGeometry relative="1" as="geometry">
            <Array as="points">
              <mxPoint x="330" y="170" />
              <mxPoint x="330" y="50" />
            </Array>
          </mxGeometry>
        </mxCell>
        <mxCell id="4P-OQTRNROBFhKRvD-74-3" value="&lt;h1 style=&quot;margin-top: 0px;&quot;&gt;&lt;span style=&quot;background-color: transparent; color: light-dark(rgb(0, 0, 0), rgb(255, 255, 255));&quot;&gt;the complexity&amp;nbsp;&lt;/span&gt;&lt;/h1&gt;&lt;div&gt;Firstly first the complexity is in measure to represent the uses for in algorithm and another.&lt;/div&gt;&lt;div&gt;&lt;br&gt;&lt;/div&gt;&lt;div&gt;this measure generally represent the amounts of resources need in algorithm to run&amp;nbsp;&lt;/div&gt;&lt;div&gt;&lt;br&gt;&lt;/div&gt;&lt;div&gt;-&lt;b&gt;Time complexity&lt;/b&gt;:&lt;/div&gt;&lt;div&gt;&lt;span style=&quot;white-space: pre;&quot;&gt;&#x9;&lt;/span&gt;is the computational complexity simply is the &lt;span style=&quot;white-space: pre;&quot;&gt;&#x9;&lt;/span&gt;amount of resources needed to run in algorithm&lt;br&gt;&lt;/div&gt;&lt;div&gt;&lt;span style=&quot;white-space: pre;&quot;&gt;&#x9;&lt;/span&gt;this no relation of the time measure an the time &lt;span style=&quot;white-space: pre;&quot;&gt;&#x9;&lt;/span&gt;complexity the time complexity is estimated by the&lt;br&gt;&lt;/div&gt;&lt;div&gt;&lt;span style=&quot;white-space: pre;&quot;&gt;&#x9;&lt;/span&gt;by counting the number operations takes in &lt;span style=&quot;white-space: pre;&quot;&gt;&#x9;&lt;/span&gt;algorithm&lt;br&gt;&lt;/div&gt;&lt;div&gt;&lt;br&gt;&lt;/div&gt;&lt;div&gt;-&lt;b&gt;Sapce complexity&lt;/b&gt;:&lt;/div&gt;&lt;div&gt;&lt;span style=&quot;white-space: pre;&quot;&gt;&#x9;&lt;/span&gt;is simply the amount of memory space needed for &lt;span style=&quot;white-space: pre;&quot;&gt;&#x9;&lt;/span&gt;in&amp;nbsp;&lt;span style=&quot;background-color: transparent; color: light-dark(rgb(0, 0, 0), rgb(255, 255, 255));&quot;&gt;for in algorithm to run&amp;nbsp;&lt;/span&gt;&lt;/div&gt;&lt;div&gt;&lt;span style=&quot;background-color: transparent; color: light-dark(rgb(0, 0, 0), rgb(255, 255, 255));&quot;&gt;&lt;span style=&quot;white-space: pre;&quot;&gt;&#x9;&lt;/span&gt;this tow side for the counting this space&amp;nbsp;&lt;br&gt;&lt;/span&gt;&lt;/div&gt;&lt;div&gt;&lt;span style=&quot;background-color: transparent; color: light-dark(rgb(0, 0, 0), rgb(255, 255, 255));&quot;&gt;&lt;span style=&quot;white-space: pre;&quot;&gt;&#x9;&lt;/span&gt;&quot;space complexity = Auxiliary space + Input space&quot;&lt;/span&gt;&lt;/div&gt;&lt;div&gt;&lt;span style=&quot;background-color: transparent; color: light-dark(rgb(0, 0, 0), rgb(255, 255, 255));&quot;&gt;&lt;span style=&quot;white-space: pre;&quot;&gt;&#x9;&lt;/span&gt;auxiliary space this the space required for the &lt;span style=&quot;white-space: pre;&quot;&gt;&#x9;&lt;/span&gt;program to execute&amp;nbsp;&lt;br&gt;&lt;/span&gt;&lt;/div&gt;&lt;div&gt;&lt;span style=&quot;background-color: transparent; color: light-dark(rgb(0, 0, 0), rgb(255, 255, 255));&quot;&gt;&lt;br&gt;&lt;/span&gt;&lt;/div&gt;&lt;div&gt;&lt;span style=&quot;background-color: transparent; color: light-dark(rgb(0, 0, 0), rgb(255, 255, 255));&quot;&gt;where we get all of that in the Big O notation that represent all of this concepts we quickly speak about it&lt;/span&gt;&lt;/div&gt;&lt;div&gt;&lt;span style=&quot;background-color: transparent; color: light-dark(rgb(0, 0, 0), rgb(255, 255, 255));&quot;&gt;&lt;br&gt;&lt;/span&gt;&lt;/div&gt;" style="text;html=1;whiteSpace=wrap;overflow=hidden;rounded=0;" vertex="1" parent="1">
          <mxGeometry x="20" y="170" width="300" height="400" as="geometry" />
        </mxCell>
        <mxCell id="4P-OQTRNROBFhKRvD-74-24" style="edgeStyle=orthogonalEdgeStyle;rounded=0;orthogonalLoop=1;jettySize=auto;html=1;exitX=0.25;exitY=0;exitDx=0;exitDy=0;entryX=1;entryY=0.75;entryDx=0;entryDy=0;curved=1;" edge="1" parent="1" source="4P-OQTRNROBFhKRvD-74-12" target="4P-OQTRNROBFhKRvD-74-1">
          <mxGeometry relative="1" as="geometry" />
        </mxCell>
        <mxCell id="4P-OQTRNROBFhKRvD-74-12" value="stack" style="text;strokeColor=none;fillColor=none;html=1;fontSize=24;fontStyle=1;verticalAlign=middle;align=center;" vertex="1" parent="1">
          <mxGeometry x="540" y="70" width="100" height="40" as="geometry" />
        </mxCell>
        <mxCell id="4P-OQTRNROBFhKRvD-74-14" value="the history. of the stack firstly the stack it comes with first&lt;div&gt;from there uses in the math equations the first implementation it was on&lt;/div&gt;&lt;div&gt;the Polish Notation &quot;prefix notation&quot;&lt;/div&gt;" style="text;html=1;align=center;verticalAlign=middle;resizable=0;points=[];autosize=1;strokeColor=none;fillColor=none;" vertex="1" parent="1">
          <mxGeometry x="540" y="110" width="400" height="60" as="geometry" />
        </mxCell>
        <mxCell id="4P-OQTRNROBFhKRvD-74-19" value="" style="shape=image;verticalLabelPosition=bottom;labelBackgroundColor=default;verticalAlign=top;aspect=fixed;imageAspect=0;image=https://math.hws.edu/eck/cs124/notes/c11/expressionTree.gif;" vertex="1" parent="1">
          <mxGeometry x="860" y="220.00000000000003" width="234" height="229.15" as="geometry" />
        </mxCell>
        <mxCell id="4P-OQTRNROBFhKRvD-74-20" value="&lt;b&gt;prefix expression&lt;/b&gt;" style="text;html=1;align=center;verticalAlign=middle;resizable=0;points=[];autosize=1;strokeColor=none;fillColor=none;" vertex="1" parent="1">
          <mxGeometry x="855" y="190" width="120" height="30" as="geometry" />
        </mxCell>
      </root>
    </mxGraphModel>
  </diagram>
</mxfile>
